PathFileType	4	(X/Y/Z)	C:\Users\Basilio\Documents\Thesis Gigler\squatting_fais\c3dfiles\073\SLS_back_pre1\markers_experimental.trc
DataRate	CameraRate	NumFrames	NumMarkers	Units	OrigDataRate	OrigDataStartFrame	OrigNumFrames
200.000000	200.000000	4	61	mm	200.000000	476	1271
Frame#	Time	FHD			LBHD			RBHD			C7			T10			CLAV			LSHO			LUUPA			LMUPA			LDUPA			LLEP			LMEP			LRAD			LUL			LRFIN			RSHO			RUPA1			RMUPA			RDUPA			RLEP			RMEP			RRAD			RUL			RUFIN			LASI			RASI			USACR			LSACR			RSACR			LTHI1			LTHI2			LTHI3			LTHI4			LLFC			LTIB1			LTIB2			LTIB3			LTIB4			LLMAL			LMMAL			LHEE			LMT1			LMT2			LMT5			RTHI			RTHI2			RTHI3			RTHI4			RLFC			RMFC			RTIB1			RTIB2			RTIB3			RTIB4			RLMAL			RMMAL			RHEE			RMT1			RMT2			RMT5			LMFC			
		X1	Y1	Z1	X2	Y2	Z2	X3	Y3	Z3	X4	Y4	Z4	X5	Y5	Z5	X6	Y6	Z6	X7	Y7	Z7	X8	Y8	Z8	X9	Y9	Z9	X10	Y10	Z10	X11	Y11	Z11	X12	Y12	Z12	X13	Y13	Z13	X14	Y14	Z14	X15	Y15	Z15	X16	Y16	Z16	X17	Y17	Z17	X18	Y18	Z18	X19	Y19	Z19	X20	Y20	Z20	X21	Y21	Z21	X22	Y22	Z22	X23	Y23	Z23	X24	Y24	Z24	X25	Y25	Z25	X26	Y26	Z26	X27	Y27	Z27	X28	Y28	Z28	X29	Y29	Z29	X30	Y30	Z30	X31	Y31	Z31	X32	Y32	Z32	X33	Y33	Z33	X34	Y34	Z34	X35	Y35	Z35	X36	Y36	Z36	X37	Y37	Z37	X38	Y38	Z38	X39	Y39	Z39	X40	Y40	Z40	X41	Y41	Z41	X42	Y42	Z42	X43	Y43	Z43	X44	Y44	Z44	X45	Y45	Z45	X46	Y46	Z46	X47	Y47	Z47	X48	Y48	Z48	X49	Y49	Z49	X50	Y50	Z50	X51	Y51	Z51	X52	Y52	Z52	X53	Y53	Z53	X54	Y54	Z54	X55	Y55	Z55	X56	Y56	Z56	X57	Y57	Z57	X58	Y58	Z58	X59	Y59	Z59	X60	Y60	Z60	X61	Y61	Z61	

477	2.38	-27.33606529235841	1358.9765625	-746.7555541992189	-163.4855499267578	1341.281005859375	-774.5179443359377	-191.3272247314453	1325.796630859375	-641.6621704101564	-225.3284759521485	1253.339965820313	-705.0881958007814	-435.4710998535157	1000.573303222656	-725.4749145507814	-144.6998138427735	1124.571044921875	-705.8479003906251	-153.3162689208985	1200.315795898438	-836.3274536132815	-83.53293609619142	1129.71142578125	-938.7653808593752	-41.90138626098634	1141.620361328125	-913.4793701171877	-25.31489944458009	1095.547607421875	-950.388854980469	75.87564086914064	1060.49560546875	-954.479675292969	66.59478759765626	1004.130554199219	-913.8862915039065	337.4616699218751	1058.86962890625	-846.6340942382815	340.1886291503907	1056.140014648438	-921.1441650390627	418.4844055175782	1064.603393554688	-840.1077270507815	-144.9057922363282	1184.740600585938	-571.5942993164064	-70.78118896484376	1087.010131835938	-467.1145629882814	-30.1664218902588	1105.041381835938	-485.7092895507814	-10.41243076324463	1054.05712890625	-461.3550109863282	80.86814880371095	1030.996826171875	-462.5491333007814	74.40455627441408	977.1777343750002	-525.0913085937501	332.9015808105469	1056.584594726563	-577.2375488281251	344.5948791503907	1060.25439453125	-505.208221435547	422.4421386718751	1085.865356445313	-581.7355957031251	-373.0818786621094	781.4844970703127	-854.0518188476565	-371.6270446777344	806.1007080078127	-609.6846313476564	-516.1674194335939	913.4571533203127	-726.9661254882814	-536.9500732421876	889.7016601562502	-753.4780273437501	-543.5588378906251	893.4968261718752	-696.7870483398439	-395.7402954101564	490.1205139160157	-914.3626098632815	-350.8510131835938	418.9017639160157	-898.168884277344	-311.5748596191407	427.4097595214845	-869.5960693359377	-375.1764831542969	364.1240234375001	-891.205993652344	-382.8494873046876	320.2962036132813	-893.1046142578127	-552.4346923828126	249.0341186523438	-844.183288574219	-592.5716552734376	302.2953796386719	-899.9361572265627	-598.8942871093751	265.0039978027344	-878.4420166015627	-678.0179443359376	265.2555541992188	-845.9321899414065	-795.8601684570315	322.9389953613282	-880.1270141601565	-773.135192871094	318.5658569335938	-793.6702880859377	-824.8411865234377	387.0247497558595	-842.5784301757815	-842.5488281250002	168.9628143310547	-785.1506347656252	-842.4923095703127	162.9105529785157	-824.407897949219	-864.3086547851565	194.0890197753907	-879.0458984375002	-355.7513122558594	631.9577026367189	-542.7810058593751	-290.8894348144532	619.3682861328126	-549.6731567382814	-269.1714477539063	642.9560546875001	-556.5313110351564	-256.8551025390626	545.6804199218751	-573.7637329101564	-164.9736480712891	451.9283752441407	-611.9306640625001	-168.1009368896485	459.9944458007814	-737.6381835937501	-185.4491271972657	307.4010314941407	-719.3518676757814	-237.0204467773438	236.0126037597657	-657.3778076171876	-220.2905731201172	229.4405670166016	-701.2709350585939	-260.2758789062501	202.7776794433594	-734.0090942382814	-352.4865112304688	92.32672119140626	-686.2272338867189	-344.8059692382813	128.8515930175782	-770.2568359375002	-430.6392822265626	80.71858978271486	-743.2758789062501	-206.6569976806641	56.91367721557619	-759.5873413085939	-206.0178985595704	52.4169158935547	-718.5888671875001	-248.4353637695313	34.20143508911134	-670.2371826171876	-394.505096435547	317.1087036132813	-756.4591674804689	
478	2.385	-26.8844165802002	1358.228881835938	-746.6618652343751	-163.1707916259766	1340.378295898438	-774.4455566406252	-190.9148254394532	1324.871826171875	-641.7266845703126	-224.9672241210938	1252.526000976563	-704.9725341796876	-435.2896118164064	1000.023986816406	-725.4738159179689	-144.1643829345703	1123.509033203125	-705.7554931640626	-152.8628082275391	1199.421997070313	-836.265563964844	-83.32504272460939	1128.86474609375	-938.5946044921877	-41.65182495117188	1140.815063476563	-913.4136962890627	-25.08469963073731	1094.72265625	-950.3291625976565	76.00776672363283	1059.533813476563	-954.457214355469	66.81013488769533	1003.297973632813	-913.9263305664065	337.6843261718751	1057.8515625	-846.7497558593752	340.3565368652344	1055.025146484375	-921.2358398437502	418.7384338378907	1063.4169921875	-840.137878417969	-144.5091247558594	1183.803955078125	-571.5688476562501	-70.30751037597658	1086.17822265625	-467.1297302246095	-29.73115730285645	1104.138305664063	-485.6657104492189	-9.96372699737549	1053.202392578125	-461.4495849609376	81.31053924560548	1030.067016601563	-462.5541992187501	74.83171844482423	976.3485107421877	-525.2202148437501	333.0626220703126	1055.480346679688	-578.6226196289064	345.0475769042969	1059.315795898438	-505.357879638672	422.848358154297	1084.958740234375	-581.9125976562501	-372.8825073242188	780.6988525390627	-854.0246582031252	-371.6549377441407	805.4259033203127	-609.6055908203126	-516.0635986328126	912.8491210937502	-727.0083007812501	-536.8372802734376	889.0858154296877	-753.5086669921876	-543.5263061523439	892.945495605469	-696.8450927734376	-396.0181884765626	488.7662048339845	-914.749694824219	-350.9185180664063	418.1513977050782	-898.0852661132815	-311.6692504882813	426.6777648925782	-869.643249511719	-375.2572021484376	363.5160827636719	-891.270690917969	-382.9508056640626	319.5780944824219	-893.215759277344	-552.5762939453126	248.5317993164063	-844.2647094726565	-592.5435791015626	301.6226501464844	-899.9034423828127	-599.1803588867189	264.7324218750001	-878.7801513671877	-678.1521606445314	264.7819824218751	-845.9212036132815	-795.9881591796877	322.6053771972657	-880.0285644531252	-773.1884765625002	318.3261108398438	-793.7114257812502	-824.8503417968752	386.7952880859376	-842.5592041015627	-842.7337036132815	168.7262115478516	-785.1445922851565	-842.850280761719	162.7041015625	-824.3095703125002	-864.616882324219	193.8545379638672	-878.974060058594	-355.7558898925782	631.5715332031251	-542.6020507812501	-290.8477478027344	619.0433349609376	-549.3684082031251	-269.1687622070313	642.6982421875001	-556.2770996093751	-256.7541503906251	545.4079589843751	-573.4265747070314	-164.8103332519532	451.7387695312501	-611.5452880859376	-167.8364868164063	459.7503967285157	-737.2072143554689	-185.2239837646485	307.1906738281251	-719.1154174804689	-236.9850769042969	235.9279327392579	-657.0751953125001	-220.2299499511719	229.3105773925782	-700.9506835937501	-260.1537170410157	202.7282867431641	-733.8219604492189	-352.5124206542969	92.24514007568361	-686.1925659179689	-344.7916564941407	128.8847351074219	-770.110046386719	-430.6393127441407	80.73870849609376	-743.2437133789064	-206.6567535400391	57.01731109619142	-759.6039428710939	-206.0311737060547	52.3692970275879	-718.5862426757814	-248.4388580322266	34.17082977294923	-670.2153930664064	-394.6164550781251	316.4047851562501	-756.4540405273439	
479	2.39	-27.07756042480469	1357.252075195313	-746.7175903320314	-163.0406188964844	1339.415405273438	-774.2651367187502	-190.5002136230469	1324.064086914063	-641.5103149414064	-224.5886535644532	1251.700317382813	-704.9125976562501	-435.0874633789064	999.4317016601565	-725.5045166015626	-143.7664184570313	1122.781616210938	-705.6680297851564	-152.6014862060547	1198.604614257813	-836.1670532226565	-83.07372283935548	1128.090087890625	-938.447937011719	-41.40155792236329	1140.032348632813	-913.376159667969	-24.91596221923829	1093.988525390625	-950.3240356445315	76.34738922119142	1058.6806640625	-954.3796386718752	67.29743957519533	1002.387329101563	-914.0330810546877	337.9114990234376	1056.680786132813	-846.839782714844	340.7134704589844	1054.030639648438	-921.2396240234377	418.7964477539064	1062.203369140625	-840.198913574219	-144.1246185302735	1182.90673828125	-571.4254760742189	-69.94102478027345	1085.264526367188	-467.1492309570314	-29.34345054626466	1103.271362304688	-485.7221984863282	-9.532871246337892	1052.260986328125	-461.4969787597657	81.7295608520508	1029.18701171875	-462.6814270019532	75.25166320800783	975.4842529296877	-525.3294677734376	333.6126708984376	1054.713256835938	-578.0701293945314	345.4314880371094	1058.407836914063	-505.386688232422	423.2916870117189	1083.992431640625	-582.1998901367189	-372.7637634277344	780.087829589844	-853.9529418945315	-371.4291381835938	804.9649658203127	-609.6035156250001	-515.9577636718751	912.1675415039065	-727.0770263671876	-536.6272583007814	888.4439086914065	-753.5657958984376	-543.3255615234376	892.3609008789065	-696.8757324218751	-395.874237060547	488.6329956054689	-914.3914184570315	-350.8365478515626	417.4639587402345	-898.1243286132815	-311.8002014160157	425.9991455078126	-869.8568115234377	-375.4850158691407	362.8964843750001	-891.3151855468752	-383.1213989257813	318.8924255371094	-893.2456054687502	-552.7645263671876	247.9775085449219	-844.1863403320315	-592.6660766601564	301.1763610839844	-899.899841308594	-599.4887084960939	264.7272949218751	-879.2097778320315	-678.2766723632814	264.3931579589844	-845.8510742187502	-796.0216064453127	322.3686828613282	-880.0225830078127	-773.2515869140627	318.0720825195313	-793.6116333007815	-824.8369140625002	386.569549560547	-842.566101074219	-842.9771118164065	168.4720458984375	-785.0720825195315	-843.089050292969	162.5307922363282	-824.308044433594	-864.7280883789065	193.5794219970704	-878.933776855469	-355.7371215820313	631.1971435546876	-542.3531494140626	-290.8513793945313	618.6606445312501	-549.1487426757814	-269.1711425781251	642.4006958007814	-555.9980468750001	-256.6655883789063	545.0978393554689	-573.0800170898439	-164.6374969482422	451.5502319335939	-611.1795654296876	-167.4568481445313	459.6031799316407	-736.9492187500001	-185.0887451171875	307.0441284179688	-718.7179565429689	-236.9112396240235	235.8082580566407	-656.8067626953126	-220.1997222900391	229.2044982910157	-700.5780029296876	-260.1578674316407	202.7115478515626	-733.6649780273439	-352.5268249511719	92.19284820556642	-686.1271972656251	-344.7625122070313	128.9146728515625	-769.9936523437502	-430.6422424316407	80.77394104003908	-743.1951293945314	-206.3633728027344	57.24996948242189	-759.4877319335939	-206.0064544677735	52.39578247070314	-718.5101318359376	-248.4632415771485	34.15618896484376	-670.1700439453126	-394.6542358398439	315.6943054199219	-756.4980468750001	
480	2.395	-26.75141525268555	1356.32080078125	-746.6468505859376	-162.5865325927735	1338.635864257813	-774.142761230469	-190.193099975586	1323.219482421875	-641.3543090820314	-224.1889953613282	1250.831176757813	-704.7650146484376	-434.9603576660157	998.7434692382815	-725.5167846679689	-143.515609741211	1122.025390625	-705.6610107421876	-152.307846069336	1197.7998046875	-835.9970703125002	-82.8260955810547	1127.416015625	-938.4453735351565	-40.99772262573243	1139.149658203125	-913.2380371093752	-24.60563850402833	1093.121826171875	-950.2338867187502	76.49944305419923	1057.904541015625	-954.5198364257815	67.30140686035158	1001.550109863281	-914.2517089843752	338.2826843261719	1055.558837890625	-846.854919433594	340.9181213378907	1053.02197265625	-921.332946777344	419.9737548828126	1061.293090820313	-840.3972778320315	-143.7420959472657	1182.087890625	-571.4046020507814	-69.49993896484376	1084.351196289063	-467.0530395507814	-28.88809204101563	1102.383544921875	-485.7276306152345	-9.12491035461426	1051.28662109375	-461.5558166503907	82.12386322021486	1028.2939453125	-462.8781738281251	75.59252929687501	974.5269165039065	-525.4171752929689	333.9533691406251	1053.8369140625	-577.9206542968751	345.8057556152344	1057.447021484375	-505.6334228515626	423.6210937500001	1083.096069335938	-582.3616943359376	-372.7865295410157	779.4893188476565	-853.8733520507815	-371.2902221679688	804.4592895507815	-609.6036987304689	-515.8355102539064	911.552185058594	-727.1533813476564	-536.4176025390626	887.8656005859377	-753.6140136718751	-543.1912841796876	891.8736572265627	-696.8720092773439	-395.9880981445314	487.949676513672	-914.3753662109377	-350.8200683593751	416.6677246093751	-898.1434326171877	-311.8294677734376	425.2166137695314	-869.9160156250002	-375.6476135253907	362.2316894531251	-891.3892822265627	-383.1382446289063	318.2568969726563	-893.3247070312502	-552.8698730468751	247.5679931640626	-843.7897949218752	-592.7833862304689	300.7166137695313	-899.8574829101565	-599.5615844726564	264.3384704589844	-879.236022949219	-678.3752441406251	263.9678344726563	-845.9516601562502	-796.1640625000002	322.1218261718751	-879.976989746094	-773.320983886719	317.8261413574219	-793.641296386719	-824.8411254882815	386.3514404296876	-842.5089111328127	-843.151794433594	168.2954406738282	-785.065856933594	-843.295593261719	162.3861083984375	-824.340515136719	-864.8840332031252	193.4731597900391	-878.970642089844	-355.7414550781251	630.8477783203126	-542.1128540039064	-290.7996520996094	618.3939819335939	-548.9461059570314	-269.2109680175782	642.0769653320314	-555.7381591796876	-256.5754089355469	544.7706909179689	-572.7537231445314	-164.3890075683594	451.3556518554689	-610.7795410156251	-167.1516265869141	459.4436035156251	-736.5350952148439	-184.8716125488282	306.8975524902344	-718.4265747070314	-236.8640747070313	235.6930847167969	-656.4505004882814	-220.0698699951172	229.1301727294922	-700.1952514648439	-260.0855407714844	202.689193725586	-733.4180297851564	-352.5006103515626	92.15231323242189	-686.0824584960939	-344.7094421386719	128.9719543457032	-769.8845214843752	-430.6307678222657	80.76651000976564	-743.1578979492189	-206.3585662841797	57.33785629272462	-759.5521850585939	-206.0197753906251	52.38532638549806	-718.4881591796876	-248.463363647461	34.13586425781251	-670.1701049804689	-394.6244506835939	314.9756774902344	-756.5835571289064	
